<svg xmlns="http://www.w3.org/2000/svg" width="343.0460205078125" height="185.76638793945312" viewBox="159.9534454345703 4.63167142868042 343.0460205078125 185.76638793945312"><title>Neo4j Graph Visualization</title><desc>Created using Neo4j (http://www.neo4j.com/)</desc><g class="layer relationships"><g class="relationship" transform="translate(188.9534433947263 100.26679529032873) rotate(359.84661448620784)"><path class="outline" fill="#A5ABB6" stroke="none" d="M 5.987513214418485,-24.277555179777966 L 6.953439040707552,-24.018736134675446 A 55.393780303541035 55.393780303541035 0 0 1 26.261470322677717,-53.25871970688592 L 25.644104049034596,-54.045395551289445 A 56.393780303541035 56.393780303541035 0 0 0 5.987513214418485,-24.277555179777966 Z M 90.32552538087137,-57.517868566896546 L 89.79593145812959,-56.669617261566 A 55.393780303541035 55.393780303541035 0 0 1 112.12350517550306,-29.664873915555138 L 109.32551326157042,-28.582634917196845 L 115.11506149066118,-23.316599282772028 L 115.85416106074658,-31.10785924669953 L 113.05616914681394,-30.025620248341237 A 56.393780303541035 56.393780303541035 0 0 0 90.32552538087137,-57.517868566896546"/><text text-anchor="middle" pointer-events="none" font-size="8px" fill="#000000" x="57.46333539315722" y="-62.49517729826741" font-family="sans-serif">FLY_TO_TICKET</text></g><g class="relationship" transform="translate(313.08671838643806 99.93447951051152) rotate(358.2538146518136)"><path class="outline" fill="#A5ABB6" stroke="none" d="M 5.987513214418485,24.277555179777966 L 6.953439040707552,24.018736134675446 A 74.85159425401214 74.85159425401214 0 0 0 43.67835787372345,70.50236038176392 L 43.20306847540929,71.38218990380224 A 75.85159425401214 75.85159425401214 0 0 1 5.987513214418485,24.277555179777966 Z M 109.6478885232675,74.14181809488187 L 109.24719343237834,73.22560663231586 A 74.85159425401214 74.85159425401214 0 0 0 149.700157971494,29.94738293455814 L 146.8767459278093,28.933309746086884 L 152.53689741854103,23.528433697372407 L 153.4647073630736,31.299480519186474 L 150.6412953193889,30.28540733071522 A 75.85159425401214 75.85159425401214 0 0 1 109.6478885232675,74.14181809488187"/><text text-anchor="middle" pointer-events="none" font-size="8px" fill="#000000" x="76.1276727986319" y="82.93240697487035" font-family="sans-serif">FLY_TO_TICKET</text></g><g class="relationship" transform="translate(313.08671838643806 99.93447951051152) rotate(539.8466144862078)"><path class="outline" fill="#A5ABB6" stroke="none" d="M 17.324116139070416,18.03122292025696 L 18.031222920256962,17.324116139070412 A 60.002958902793985 60.002958902793985 0 0 0 26.40744884451285,24.300047644127517 L 25.83993894450387,25.123414217041308 A 61.002958902793985 61.002958902793985 0 0 1 17.324116139070416,18.03122292025696 Z M 91.13150041453625,27.627040342844587 L 90.62870876451595,26.762632709450557 A 60.002958902793985 60.002958902793985 0 0 0 99.51454189733852,20.448620464209263 L 97.5618971998198,18.171082608266577 L 105.1542376774579,16.27203914598936 L 102.11806816069681,23.48533760546618 L 100.16542346317809,21.207799749523495 A 61.002958902793985 61.002958902793985 0 0 1 91.13150041453625,27.627040342844587"/><text text-anchor="middle" pointer-events="none" font-size="8px" fill="#000000" x="58.14142019391538" y="38.35414421836781" transform="rotate(180 58.14142019391538 35.35414421836781)" font-family="sans-serif">FLY_TO_TICKET</text></g><g class="relationship" transform="translate(313.08671838643806 99.93447951051152) rotate(539.8466144862078)"><path class="outline" fill="#A5ABB6" stroke="none" d="M 24.018736134675446,6.953439040707552 L 24.277555179777966,5.987513214418485 A 139.79715773068497 139.79715773068497 0 0 0 24.850178649591605,6.1396473778633265 L 24.595455706864186,7.106661453483895 A 140.79715773068497 140.79715773068497 0 0 1 24.018736134675446,6.953439040707552 Z M 92.54196202405069,8.04711571477472 L 92.31410060632423,7.073422141666811 A 139.79715773068497 139.79715773068497 0 0 0 92.89071531745637,6.937194696655197 L 92.19475710645496,4.019037372496726 L 99.81574210899304,5.799651758345007 L 93.81865959879157,10.828071128866492 L 93.12270138779016,7.909913804708021 A 140.79715773068497 140.79715773068497 0 0 1 92.54196202405069,8.04711571477472"/><text text-anchor="middle" pointer-events="none" font-size="8px" fill="#000000" x="58.51804130546292" y="14.237548997872807" transform="rotate(180 58.51804130546292 11.237548997872807)" font-family="sans-serif">FLY_TO_TICKET</text></g><g class="relationship" transform="translate(313.08671838643806 99.93447951051152) rotate(539.8466144862078)"><path class="outline" fill="#A5ABB6" stroke="none" d="M 24.018736134675446,-6.953439040707552 L 24.277555179777966,-5.987513214418485 A 139.79715773068497 139.79715773068497 0 0 1 24.85017864959157,-6.1396473778633265 L 24.595455706864158,-7.106661453483895 A 140.79715773068497 140.79715773068497 0 0 0 24.018736134675446,-6.953439040707552 Z M 92.54196202405066,-8.04711571477472 L 92.31410060632419,-7.073422141666811 A 139.79715773068497 139.79715773068497 0 0 1 92.89071531745637,-6.937194696655197 L 92.19475710645496,-4.019037372496726 L 99.81574210899304,-5.799651758345007 L 93.81865959879157,-10.828071128866492 L 93.12270138779016,-7.909913804708021 A 140.79715773068497 140.79715773068497 0 0 0 92.54196202405066,-8.04711571477472"/><text text-anchor="middle" pointer-events="none" font-size="8px" fill="#000000" x="58.518041305462894" y="-8.237548997872807" transform="rotate(180 58.518041305462894 -11.237548997872807)" font-family="sans-serif">FLY_TO_TICKET</text></g><g class="relationship" transform="translate(188.9534433947263 100.26679529032873) rotate(359.84661448620784)"><path class="outline" fill="#A5ABB6" stroke="none" d="M 17.324116139070416,18.03122292025696 L 18.031222920256962,17.324116139070412 A 60.002958902793985 60.002958902793985 0 0 0 26.40744884451285,24.300047644127517 L 25.83993894450387,25.123414217041308 A 61.002958902793985 61.002958902793985 0 0 1 17.324116139070416,18.03122292025696 Z M 91.13150041453625,27.627040342844587 L 90.62870876451595,26.762632709450557 A 60.002958902793985 60.002958902793985 0 0 0 99.51454189733852,20.448620464209263 L 97.5618971998198,18.171082608266577 L 105.1542376774579,16.27203914598936 L 102.11806816069681,23.48533760546618 L 100.16542346317809,21.207799749523495 A 61.002958902793985 61.002958902793985 0 0 1 91.13150041453625,27.627040342844587"/><text text-anchor="middle" pointer-events="none" font-size="8px" fill="#000000" x="58.14142019391538" y="38.35414421836781" font-family="sans-serif">FLY_TO_TICKET</text></g><g class="relationship" transform="translate(188.9534433947263 100.26679529032873) rotate(359.84661448620784)"><path class="outline" fill="#A5ABB6" stroke="none" d="M 5.987513214418485,24.277555179777966 L 6.953439040707552,24.018736134675446 A 55.393780303541035 55.393780303541035 0 0 0 26.261470322677702,53.258719706885906 L 25.64410404903458,54.04539555128944 A 56.393780303541035 56.393780303541035 0 0 1 5.987513214418485,24.277555179777966 Z M 90.32552538087138,57.51786856689654 L 89.79593145812959,56.669617261565996 A 55.393780303541035 55.393780303541035 0 0 0 112.12350517550306,29.664873915555138 L 109.32551326157042,28.582634917196845 L 115.11506149066118,23.316599282772028 L 115.85416106074658,31.10785924669953 L 113.05616914681394,30.025620248341237 A 56.393780303541035 56.393780303541035 0 0 1 90.32552538087138,57.51786856689654"/><text text-anchor="middle" pointer-events="none" font-size="8px" fill="#000000" x="57.46333539315722" y="68.49517729826741" font-family="sans-serif">FLY_TO_TICKET</text></g><g class="relationship" transform="translate(313.08671838643806 99.93447951051152) rotate(358.2538146518136)"><path class="outline" fill="#A5ABB6" stroke="none" d="M 10.396609043987748,22.74116356711926 L 11.29757791189017,22.307279828001697 A 75.42652313380303 75.42652313380303 0 0 0 43.83811907083146,56.175520578506465 L 43.36857060793983,57.05842727855811 A 76.42652313380303 76.42652313380303 0 0 1 10.396609043987748,22.74116356711926 Z M 109.85314579166462,59.61477241242824 L 109.45277930281459,58.69841730953095 A 75.42652313380303 75.42652313380303 0 0 0 144.49788182453506,27.428857995511166 L 141.90290520181995,25.923502114809867 L 148.44287498329064,21.62480518929275 L 147.9578506548219,29.435999169779567 L 145.3628740321068,27.93064328907827 A 76.42652313380303 76.42652313380303 0 0 1 109.85314579166462,59.61477241242824"/><text text-anchor="middle" pointer-events="none" font-size="8px" fill="#000000" x="76.33729280889676" y="68.45139767084933" font-family="sans-serif">FLY_TO_TICKET</text></g><g class="relationship" transform="translate(313.08671838643806 99.93447951051152) rotate(358.2538146518136)"><path class="outline" fill="#A5ABB6" stroke="none" d="M 14.44320574945421,20.411854586953456 L 15.247803529220876,19.818034401379958 A 79.55120577005461 79.55120577005461 0 0 0 43.84991263118815,43.81730846034238 L 43.40485822760414,44.712811993473586 A 80.55120577005461 80.55120577005461 0 0 1 14.44320574945421,20.411854586953456 Z M 110.10641353063818,46.98764424626183 L 109.72340391375992,46.063899891270275 A 79.55120577005461 79.55120577005461 0 0 0 139.8941258008854,24.069051829786545 L 137.60731198790822,22.12727877796593 L 144.80606522396303,19.056781774809878 L 142.943210884855,26.658082565547364 L 140.65639707187782,24.71630951372675 A 80.55120577005461 80.55120577005461 0 0 1 110.10641353063818,46.98764424626183"/><text text-anchor="middle" pointer-events="none" font-size="8px" fill="#000000" x="76.52599620086991" y="55.583614144209456" font-family="sans-serif">FLY_TO_TICKET</text></g><g class="relationship" transform="translate(313.08671838643806 99.93447951051152) rotate(358.2538146518136)"><path class="outline" fill="#A5ABB6" stroke="none" d="M 17.9862104268602,17.370844380187897 L 18.666383164631117,16.637792508358068 A 89.07758359074823 89.07758359074823 0 0 0 43.717029990626244,33.0210158810642 L 43.31808004557371,33.93798858586112 A 90.07758359074823 90.07758359074823 0 0 1 17.9862104268602,17.370844380187897 Z M 110.40106916720016,35.86068491628596 L 110.05529454874302,34.92236731907762 A 89.07758359074823 89.07758359074823 0 0 0 136.00318130322225,20.00083631661519 L 134.09197136871023,17.688418407537636 L 141.71735808015518,15.926749454266757 L 138.5514612159049,23.08406019538526 L 136.6402512813929,20.771642286307706 A 90.07758359074823 90.07758359074823 0 0 1 110.40106916720016,35.86068491628596"/><text text-anchor="middle" pointer-events="none" font-size="8px" fill="#000000" x="76.68815673958679" y="43.88011630104346" font-family="sans-serif">FLY_TO_TICKET</text></g><g class="relationship" transform="translate(313.08671838643806 99.93447951051152) rotate(358.2538146518136)"><path class="outline" fill="#A5ABB6" stroke="none" d="M 20.90208894244944,13.724164012497553 L 21.434121018964774,12.87743981326927 A 108.67842110068108 108.67842110068108 0 0 0 43.47347354162577,23.47606485560202 L 43.14423565644529,24.420311865108474 A 109.67842110068108 109.67842110068108 0 0 1 20.90208894244944,13.724164012497553 Z M 110.70973073704243,25.927843918262568 L 110.42293591129818,24.96985188910662 A 108.67842110068108 108.67842110068108 0 0 0 132.91307661743014,15.364775969340522 L 131.43186583967642,12.755942009145619 L 139.24722432084388,12.343423147947668 L 134.88802432110177,18.843221249600397 L 133.40681354334805,16.23438728940549 A 109.67842110068108 109.67842110068108 0 0 1 110.70973073704243,25.927843918262568"/><text text-anchor="middle" pointer-events="none" font-size="8px" fill="#000000" x="76.81912693960352" y="33.00804569753126" font-family="sans-serif">FLY_TO_TICKET</text></g><g class="relationship" transform="translate(313.08671838643806 99.93447951051152) rotate(358.2538146518136)"><path class="outline" fill="#A5ABB6" stroke="none" d="M 23.08917320392191,9.598962483481976 L 23.454514228288303,8.668088734837774 A 152.73404605478666 152.73404605478666 0 0 0 43.18500813777984,14.9058508694485 L 42.94884914203865,15.877565297009681 A 153.73404605478666 153.73404605478666 0 0 1 23.08917320392191,9.598962483481976 Z M 110.98281153151576,16.916284214705883 L 110.77642729018356,15.937813190643482 A 152.73404605478666 152.73404605478666 0 0 0 130.68815252320917,10.305294694894547 L 129.67789397021062,7.48051547235462 L 137.44768046796875,8.418821274987916 L 132.03516392720724,14.071666991614451 L 131.02490537420869,11.246887769074524 A 153.73404605478666 153.73404605478666 0 0 1 110.98281153151576,16.916284214705883"/><text text-anchor="middle" pointer-events="none" font-size="8px" fill="#000000" x="76.91527547959569" y="22.708164392968627" font-family="sans-serif">FLY_TO_TICKET</text></g><g class="relationship" transform="translate(313.08671838643806 99.93447951051152) rotate(358.2538146518136)"><path class="outline" fill="#A5ABB6" stroke="none" d="M 24.471206027250748,5.139073415689509 L 24.657117634413662,4.15650694245622 A 293.67402212445415 293.67402212445415 0 0 0 42.93583683255531,7.0218600234448445 L 42.81216675110146,8.014183413753301 A 294.67402212445415 294.67402212445415 0 0 1 24.471206027250748,5.139073415689509 Z M 111.15891820393277,8.544043303654973 L 111.05064808597547,7.549921791184033 A 293.67402212445415 293.67402212445415 0 0 0 129.37159502609467,4.96830853188736 L 128.85962872147593,2.0123162276120214 L 136.3542381201736,4.266385871822854 L 130.05421676558632,8.909631604254479 L 129.54225046096758,5.95363929997914 A 294.67402212445415 294.67402212445415 0 0 1 111.15891820393277,8.544043303654973"/><text text-anchor="middle" pointer-events="none" font-size="8px" fill="#000000" x="76.97400417973446" y="12.767441095468655" font-family="sans-serif">FLY_TO_TICKET</text></g><g class="relationship" transform="translate(313.08671838643806 99.93447951051152) rotate(358.2538146518136)"><path class="outline" fill="#A5ABB6" stroke="none" d="M 25 0.5 L 42.80039428623407 0.5 L 42.80039428623407 -0.5 L 25 -0.5 Z M 111.18711303623407 0.5 L 128.98750732246813 0.5 L 128.98750732246813 3.5 L 135.98750732246813 0 L 128.98750732246813 -3.5 L 128.98750732246813 -0.5 L 111.18711303623407 -0.5 Z"/><text text-anchor="middle" pointer-events="none" font-size="8px" fill="#000000" x="76.99375366123407" y="3" font-family="sans-serif">FLY_TO_TICKET</text></g><g class="relationship" transform="translate(313.08671838643806 99.93447951051152) rotate(358.2538146518136)"><path class="outline" fill="#A5ABB6" stroke="none" d="M 24.471206027250748,-5.139073415689509 L 24.657117634413662,-4.15650694245622 A 293.67402212445415 293.67402212445415 0 0 1 42.9358368325553,-7.0218600234448445 L 42.812166751101444,-8.014183413753301 A 294.67402212445415 294.67402212445415 0 0 0 24.471206027250748,-5.139073415689509 Z M 111.15891820393266,-8.544043303654973 L 111.05064808597535,-7.549921791184033 A 293.67402212445415 293.67402212445415 0 0 1 129.37159502609467,-4.96830853188736 L 128.85962872147593,-2.0123162276120214 L 136.3542381201736,-4.266385871822854 L 130.05421676558632,-8.909631604254479 L 129.54225046096758,-5.95363929997914 A 294.67402212445415 294.67402212445415 0 0 0 111.15891820393266,-8.544043303654973"/><text text-anchor="middle" pointer-events="none" font-size="8px" fill="#000000" x="76.9740041797344" y="-6.767441095468655" font-family="sans-serif">FLY_TO_TICKET</text></g><g class="relationship" transform="translate(313.08671838643806 99.93447951051152) rotate(358.2538146518136)"><path class="outline" fill="#A5ABB6" stroke="none" d="M 23.08917320392191,-9.598962483481976 L 23.454514228288303,-8.668088734837774 A 152.73404605478666 152.73404605478666 0 0 1 43.18500813777977,-14.9058508694485 L 42.94884914203857,-15.877565297009653 A 153.73404605478666 153.73404605478666 0 0 0 23.08917320392191,-9.598962483481976 Z M 110.98281153151575,-16.916284214705883 L 110.77642729018355,-15.937813190643482 A 152.73404605478666 152.73404605478666 0 0 1 130.68815252320917,-10.305294694894547 L 129.67789397021062,-7.48051547235462 L 137.44768046796875,-8.418821274987916 L 132.03516392720724,-14.071666991614451 L 131.02490537420869,-11.246887769074524 A 153.73404605478666 153.73404605478666 0 0 0 110.98281153151575,-16.916284214705883"/><text text-anchor="middle" pointer-events="none" font-size="8px" fill="#000000" x="76.91527547959565" y="-16.708164392968627" font-family="sans-serif">FLY_TO_TICKET</text></g><g class="relationship" transform="translate(313.08671838643806 99.93447951051152) rotate(358.2538146518136)"><path class="outline" fill="#A5ABB6" stroke="none" d="M 20.90208894244944,-13.724164012497553 L 21.434121018964774,-12.87743981326927 A 108.67842110068108 108.67842110068108 0 0 1 43.47347354162576,-23.47606485560202 L 43.144235656445275,-24.420311865108474 A 109.67842110068108 109.67842110068108 0 0 0 20.90208894244944,-13.724164012497553 Z M 110.7097307370424,-25.927843918262568 L 110.42293591129817,-24.96985188910662 A 108.67842110068108 108.67842110068108 0 0 1 132.91307661743014,-15.364775969340522 L 131.43186583967642,-12.755942009145619 L 139.24722432084388,-12.343423147947668 L 134.88802432110177,-18.843221249600397 L 133.40681354334805,-16.23438728940549 A 109.67842110068108 109.67842110068108 0 0 0 110.7097307370424,-25.927843918262568"/><text text-anchor="middle" pointer-events="none" font-size="8px" fill="#000000" x="76.8191269396035" y="-27.00804569753126" font-family="sans-serif">FLY_TO_TICKET</text></g><g class="relationship" transform="translate(313.08671838643806 99.93447951051152) rotate(358.2538146518136)"><path class="outline" fill="#A5ABB6" stroke="none" d="M 17.9862104268602,-17.370844380187897 L 18.666383164631117,-16.637792508358068 A 89.07758359074823 89.07758359074823 0 0 1 43.71702999062626,-33.021015881064216 L 43.318080045573716,-33.937988585861135 A 90.07758359074823 90.07758359074823 0 0 0 17.9862104268602,-17.370844380187897 Z M 110.40106916720016,-35.86068491628596 L 110.05529454874303,-34.92236731907762 A 89.07758359074823 89.07758359074823 0 0 1 136.00318130322225,-20.00083631661519 L 134.09197136871023,-17.688418407537636 L 141.71735808015518,-15.926749454266757 L 138.5514612159049,-23.08406019538526 L 136.6402512813929,-20.771642286307706 A 90.07758359074823 90.07758359074823 0 0 0 110.40106916720016,-35.86068491628596"/><text text-anchor="middle" pointer-events="none" font-size="8px" fill="#000000" x="76.68815673958679" y="-37.88011630104346" font-family="sans-serif">FLY_TO_TICKET</text></g><g class="relationship" transform="translate(313.08671838643806 99.93447951051152) rotate(358.2538146518136)"><path class="outline" fill="#A5ABB6" stroke="none" d="M 14.44320574945421,-20.411854586953456 L 15.247803529220876,-19.818034401379958 A 79.55120577005461 79.55120577005461 0 0 1 43.849912631188154,-43.81730846034238 L 43.40485822760415,-44.712811993473586 A 80.55120577005461 80.55120577005461 0 0 0 14.44320574945421,-20.411854586953456 Z M 110.10641353063818,-46.98764424626183 L 109.72340391375994,-46.06389989127026 A 79.55120577005461 79.55120577005461 0 0 1 139.8941258008854,-24.069051829786545 L 137.60731198790822,-22.12727877796593 L 144.80606522396303,-19.056781774809878 L 142.943210884855,-26.658082565547364 L 140.65639707187782,-24.71630951372675 A 80.55120577005461 80.55120577005461 0 0 0 110.10641353063818,-46.98764424626183"/><text text-anchor="middle" pointer-events="none" font-size="8px" fill="#000000" x="76.52599620086993" y="-49.583614144209456" font-family="sans-serif">FLY_TO_TICKET</text></g><g class="relationship" transform="translate(313.08671838643806 99.93447951051152) rotate(358.2538146518136)"><path class="outline" fill="#A5ABB6" stroke="none" d="M 10.396609043987748,-22.74116356711926 L 11.29757791189017,-22.307279828001697 A 75.42652313380303 75.42652313380303 0 0 1 43.838119070831475,-56.175520578506465 L 43.36857060793985,-57.05842727855813 A 76.42652313380303 76.42652313380303 0 0 0 10.396609043987748,-22.74116356711926 Z M 109.85314579166462,-59.61477241242825 L 109.45277930281458,-58.69841730953097 A 75.42652313380303 75.42652313380303 0 0 1 144.49788182453506,-27.428857995511166 L 141.90290520181995,-25.923502114809867 L 148.44287498329064,-21.62480518929275 L 147.9578506548219,-29.435999169779567 L 145.3628740321068,-27.93064328907827 A 76.42652313380303 76.42652313380303 0 0 0 109.85314579166462,-59.61477241242825"/><text text-anchor="middle" pointer-events="none" font-size="8px" fill="#000000" x="76.33729280889678" y="-62.45139767084933" font-family="sans-serif">FLY_TO_TICKET</text></g><g class="relationship" transform="translate(313.08671838643806 99.93447951051152) rotate(358.2538146518136)"><path class="outline" fill="#A5ABB6" stroke="none" d="M 5.987513214418485,-24.277555179777966 L 6.953439040707552,-24.018736134675446 A 74.85159425401214 74.85159425401214 0 0 1 43.67835787372344,-70.50236038176392 L 43.20306847540929,-71.38218990380224 A 75.85159425401214 75.85159425401214 0 0 0 5.987513214418485,-24.277555179777966 Z M 109.64788852326748,-74.14181809488187 L 109.24719343237832,-73.22560663231587 A 74.85159425401214 74.85159425401214 0 0 1 149.700157971494,-29.94738293455814 L 146.8767459278093,-28.933309746086884 L 152.53689741854103,-23.528433697372407 L 153.4647073630736,-31.299480519186474 L 150.6412953193889,-30.28540733071522 A 75.85159425401214 75.85159425401214 0 0 0 109.64788852326748,-74.14181809488187"/><text text-anchor="middle" pointer-events="none" font-size="8px" fill="#000000" x="76.12767279863189" y="-76.93240697487035" font-family="sans-serif">FLY_TO_TICKET</text></g></g><g class="layer nodes"><g class="node" transform="translate(188.9534433947263,100.26679529032873)"><circle class="outline" cx="0" cy="0" r="25" fill="#68BDF6" stroke="#5CA8DB" stroke-width="2px"/><text text-anchor="middle" pointer-events="none" font-family="sans-serif" dy="1.5625" font-size="25" fill="#FFFFFF"/><text text-anchor="middle" pointer-events="none" y="5" font-size="10px" fill="#FFFFFF" font-family="sans-serif"> MSN</text></g><g class="node" transform="translate(313.08671838643806,99.93447951051152)"><circle class="outline" cx="0" cy="0" r="25" fill="#68BDF6" stroke="#5CA8DB" stroke-width="2px"/><text text-anchor="middle" pointer-events="none" font-family="sans-serif" dy="1.5625" font-size="25" fill="#FFFFFF"/><text text-anchor="middle" pointer-events="none" y="5" font-size="10px" fill="#FFFFFF" font-family="sans-serif"> ORD</text></g><g class="node" transform="translate(473.99946662352545,95.02887366724747)"><circle class="outline" cx="0" cy="0" r="25" fill="#68BDF6" stroke="#5CA8DB" stroke-width="2px"/><text text-anchor="middle" pointer-events="none" font-family="sans-serif" dy="1.5625" font-size="25" fill="#FFFFFF"/><text text-anchor="middle" pointer-events="none" y="5" font-size="10px" fill="#FFFFFF" font-family="sans-serif"> GRR</text></g></g></svg>