<svg xmlns="http://www.w3.org/2000/svg" width="486.990966796875" height="312.11505126953125" viewBox="-120.96135711669922 -92.56453704833984 486.990966796875 312.11505126953125"><title>Neo4j Graph Visualization</title><desc>Created using Neo4j (http://www.neo4j.com/)</desc><g class="layer relationships"><g class="relationship" transform="translate(84.19204810355414 136.9033234449247) rotate(337.68376885403336)"><path class="outline" fill="#A5ABB6" stroke="none" d="M 24.018736134675446,6.953439040707552 L 24.277555179777966,5.987513214418485 A 269.73043892077186 269.73043892077186 0 0 0 71.92285460322466,14.266023383052413 L 71.84067598333363,15.262641000011286 A 270.73043892077186 270.73043892077186 0 0 1 24.018736134675446,6.953439040707552 Z M 111.37199115248691,15.626128327328104 L 111.30815251873355,14.628168093230329 A 269.73043892077186 269.73043892077186 0 0 0 159.0976237561863,7.22717311912484 L 158.374583069344,4.315607875965998 L 166.01178277136398,6.025339057019269 L 160.06167800530937,11.109260110003296 L 159.33863731846708,8.197694866844454 A 270.73043892077186 270.73043892077186 0 0 1 111.37199115248691,15.626128327328104"/><text text-anchor="middle" pointer-events="none" font-size="8px" fill="#000000" x="91.60428726048116" y="18.666932240528467" font-family="sans-serif">WROTE</text></g><g class="relationship" transform="translate(108.46505970651027 82.09404136692717) rotate(353.4434492854391)"><path class="outline" fill="#A5ABB6" stroke="none" d="M 24.018736134675446,6.953439040707552 L 24.277555179777966,5.987513214418485 A 196.2422376863073 196.2422376863073 0 0 0 53.18817266126403,11.450668559506823 L 53.07667469149341,12.444433221153162 A 197.2422376863073 197.2422376863073 0 0 1 24.018736134675446,6.953439040707552 Z M 92.60316326514364,12.893376442246137 L 92.51426557403906,11.897335679768872 A 196.2422376863073 196.2422376863073 0 0 0 121.54151019848177,7.092240571643156 L 120.83107099334636,4.177574872835391 L 128.46080336322245,5.920326709461813 L 122.48876247199566,10.978461503386843 L 121.77832326686024,8.063795804579078 A 197.2422376863073 197.2422376863073 0 0 1 92.60316326514364,12.893376442246137"/><text text-anchor="middle" pointer-events="none" font-size="8px" fill="#000000" x="72.8343227458527" y="16.16161617741747" font-family="sans-serif">WROTE</text></g><g class="relationship" transform="translate(108.46505970651027 82.09404136692717) rotate(353.4434492854391)"><path class="outline" fill="#A5ABB6" stroke="none" d="M 24.018736134675446,-6.953439040707552 L 24.277555179777966,-5.987513214418485 A 196.2422376863073 196.2422376863073 0 0 1 44.288692518943776,-10.245384597647359 L 44.131845085942174,-11.233007442037263 A 197.2422376863073 197.2422376863073 0 0 0 24.018736134675446,-6.953439040707552 Z M 101.57320059582007,-11.88542833994984 L 101.43882564063708,-10.894497781626228 A 196.2422376863073 196.2422376863073 0 0 1 121.54151019848177,-7.092240571643156 L 120.83107099334636,-4.177574872835391 L 128.46080336322245,-5.920326709461813 L 122.48876247199566,-10.978461503386843 L 121.77832326686024,-8.063795804579078 A 197.2422376863073 197.2422376863073 0 0 0 101.57320059582007,-11.88542833994984"/><text text-anchor="middle" pointer-events="none" font-size="8px" fill="#000000" x="72.83432274585269" y="-10.161616177417471" font-family="sans-serif">PRODUCED</text></g><g class="relationship" transform="translate(84.19204810355414 136.9033234449247) rotate(337.68376885403336)"><path class="outline" fill="#A5ABB6" stroke="none" d="M 24.018736134675446,-6.953439040707552 L 24.277555179777966,-5.987513214418485 A 269.73043892077186 269.73043892077186 0 0 1 62.97948244195155,-13.378339862611881 L 62.864147118660426,-14.37166647717595 A 270.73043892077186 270.73043892077186 0 0 0 24.018736134675446,-6.953439040707552 Z M 120.36338577178941,-14.900367444784763 L 120.26633552483457,-13.90508796164147 A 269.73043892077186 269.73043892077186 0 0 1 159.0976237561863,-7.22717311912484 L 158.374583069344,-4.315607875965998 L 166.01178277136398,-6.025339057019269 L 160.06167800530937,-11.109260110003296 L 159.33863731846708,-8.197694866844454 A 270.73043892077186 270.73043892077186 0 0 0 120.36338577178941,-14.900367444784763"/><text text-anchor="middle" pointer-events="none" font-size="8px" fill="#000000" x="91.60428726048113" y="-12.666932240528467" font-family="sans-serif">PRODUCED</text></g><g class="relationship" transform="translate(337.02960553554067 132.3418457419841) rotate(221.38689589210952)"><path class="outline" fill="#A5ABB6" stroke="none" d="M 25 0.5 L 26.19038652758939 0.5 L 26.19038652758939 -0.5 L 25 -0.5 Z M 69.1923396525894 0.5 L 70.38272618017878 0.5 L 70.38272618017878 3.5 L 77.38272618017878 0 L 70.38272618017878 -3.5 L 70.38272618017878 -0.5 L 69.1923396525894 -0.5 Z"/><text text-anchor="middle" pointer-events="none" font-size="8px" fill="#000000" x="47.69136309008939" y="3" transform="rotate(180 47.69136309008939 0)" font-family="sans-serif">DIREC…</text></g><g class="relationship" transform="translate(84.19204810355414 136.9033234449247) rotate(238.49190416044252)"><path class="outline" fill="#A5ABB6" stroke="none" d="M 25 0.5 L 27.33359461819375 0.5 L 27.33359461819375 -0.5 L 25 -0.5 Z M 70.33554774319376 0.5 L 72.6691423613875 0.5 L 72.6691423613875 3.5 L 79.6691423613875 0 L 72.6691423613875 -3.5 L 72.6691423613875 -0.5 L 70.33554774319376 -0.5 Z"/><text text-anchor="middle" pointer-events="none" font-size="8px" fill="#000000" x="48.83457118069375" y="3" transform="rotate(180 48.83457118069375 0)" font-family="sans-serif">DIREC…</text></g><g class="relationship" transform="translate(108.46505970651027 82.09404136692717) rotate(203.5541301033977)"><path class="outline" fill="#A5ABB6" stroke="none" d="M 25 0.5 L 27.576561077873926 0.5 L 27.576561077873926 -0.5 L 25 -0.5 Z M 51.576561077873926 0.5 L 54.15312215574785 0.5 L 54.15312215574785 3.5 L 61.15312215574785 0 L 54.15312215574785 -3.5 L 54.15312215574785 -0.5 L 51.576561077873926 -0.5 Z"/><text text-anchor="middle" pointer-events="none" font-size="8px" fill="#000000" x="39.576561077873926" y="3" transform="rotate(180 39.576561077873926 0)" font-family="sans-serif">DI…</text></g><g class="relationship" transform="translate(19.695715522682036 -63.56453819468994) rotate(444.96787773216215)"><path class="outline" fill="#A5ABB6" stroke="none" d="M 25 0.5 L 26.329449521788163 0.5 L 26.329449521788163 -0.5 L 25 -0.5 Z M 78.33140264678816 0.5 L 79.66085216857633 0.5 L 79.66085216857633 3.5 L 86.66085216857633 0 L 79.66085216857633 -3.5 L 79.66085216857633 -0.5 L 78.33140264678816 -0.5 Z"/><text text-anchor="middle" pointer-events="none" font-size="8px" fill="#000000" x="52.33042608428816" y="3" font-family="sans-serif">DIRECTED</text></g><g class="relationship" transform="translate(108.46505970651027 82.09404136692717) rotate(534.36987295121)"><path class="outline" fill="#A5ABB6" stroke="none" d="M 25 0.5 L 71.19800727937505 0.5 L 71.19800727937505 -0.5 L 25 -0.5 Z M 123.19996040437505 0.5 L 169.3979676837501 0.5 L 169.3979676837501 3.5 L 176.3979676837501 0 L 169.3979676837501 -3.5 L 169.3979676837501 -0.5 L 123.19996040437505 -0.5 Z"/><text text-anchor="middle" pointer-events="none" font-size="8px" fill="#000000" x="97.19898384187505" y="3" transform="rotate(180 97.19898384187505 0)" font-family="sans-serif">DIRECTED</text></g><g class="relationship" transform="translate(84.19204810355414 136.9033234449247) rotate(191.25369316443994)"><path class="outline" fill="#A5ABB6" stroke="none" d="M 25 0.5 L 60.30240090655451 0.5 L 60.30240090655451 -0.5 L 25 -0.5 Z M 112.30435403155451 0.5 L 147.60675493810902 0.5 L 147.60675493810902 3.5 L 154.60675493810902 0 L 147.60675493810902 -3.5 L 147.60675493810902 -0.5 L 112.30435403155451 -0.5 Z"/><text text-anchor="middle" pointer-events="none" font-size="8px" fill="#000000" x="86.30337746905451" y="3" transform="rotate(180 86.30337746905451 0)" font-family="sans-serif">DIRECTED</text></g><g class="relationship" transform="translate(108.46505970651027 82.09404136692717) rotate(498.6454225031072)"><path class="outline" fill="#A5ABB6" stroke="none" d="M 25 0.5 L 49.39387833214303 0.5 L 49.39387833214303 -0.5 L 25 -0.5 Z M 101.39583145714303 0.5 L 125.78970978928606 0.5 L 125.78970978928606 3.5 L 132.78970978928606 0 L 125.78970978928606 -3.5 L 125.78970978928606 -0.5 L 101.39583145714303 -0.5 Z"/><text text-anchor="middle" pointer-events="none" font-size="8px" fill="#000000" x="75.39485489464303" y="3" transform="rotate(180 75.39485489464303 0)" font-family="sans-serif">DIRECTED</text></g><g class="relationship" transform="translate(84.19204810355414 136.9033234449247) rotate(512.2976267198206)"><path class="outline" fill="#A5ABB6" stroke="none" d="M 25 0.5 L 25.430845860457076 0.5 L 25.430845860457076 -0.5 L 25 -0.5 Z M 73.93035757920708 0.5 L 74.36120343966415 0.5 L 74.36120343966415 3.5 L 81.36120343966415 0 L 74.36120343966415 -3.5 L 74.36120343966415 -0.5 L 73.93035757920708 -0.5 Z"/><text text-anchor="middle" pointer-events="none" font-size="8px" fill="#000000" x="49.680601719832076" y="3" transform="rotate(180 49.680601719832076 0)" font-family="sans-serif">DIRECT…</text></g><g class="relationship" transform="translate(108.46505970651027 82.09404136692717) rotate(423.6996951243896)"><path class="outline" fill="#A5ABB6" stroke="none" d="M 25 0.5 L 30.988934053082154 0.5 L 30.988934053082154 -0.5 L 25 -0.5 Z M 82.99088717808215 0.5 L 88.97982123116431 0.5 L 88.97982123116431 3.5 L 95.97982123116431 0 L 88.97982123116431 -3.5 L 88.97982123116431 -0.5 L 82.99088717808215 -0.5 Z"/><text text-anchor="middle" pointer-events="none" font-size="8px" fill="#000000" x="56.989910615582154" y="3" font-family="sans-serif">DIRECTED</text></g><g class="relationship" transform="translate(84.19204810355414 136.9033234449247) rotate(394.56208011846445)"><path class="outline" fill="#A5ABB6" stroke="none" d="M 25 0.5 L 25.531795171620423 0.5 L 25.531795171620423 -0.5 L 25 -0.5 Z M 62.03423657787042 0.5 L 62.56603174949085 0.5 L 62.56603174949085 3.5 L 69.56603174949085 0 L 62.56603174949085 -3.5 L 62.56603174949085 -0.5 L 62.03423657787042 -0.5 Z"/><text text-anchor="middle" pointer-events="none" font-size="8px" fill="#000000" x="43.78301587474542" y="3" font-family="sans-serif">DIRE…</text></g></g><g class="layer nodes"><g class="node" transform="translate(260.2157060614443,64.65250043809687)"><circle class="outline" cx="0" cy="0" r="25" fill="#6DCE9E" stroke="#60B58B" stroke-width="2px"/><text text-anchor="middle" pointer-events="none" font-family="sans-serif" dy="1.5625" font-size="25" fill="#FFFFFF"/><text text-anchor="middle" pointer-events="none" font-family="sans-serif" dy="1.5625" font-size="25" fill="#FFFFFF"/><text text-anchor="middle" pointer-events="none" y="0" font-size="10px" fill="#FFFFFF" font-family="sans-serif"> V for</text><text text-anchor="middle" pointer-events="none" y="10" font-size="10px" fill="#FFFFFF" font-family="sans-serif"> Vendetta</text></g><g class="node" transform="translate(337.02960553554067,132.3418457419841)"><circle class="outline" cx="0" cy="0" r="25" fill="#68BDF6" stroke="#5CA8DB" stroke-width="2px"/><text text-anchor="middle" pointer-events="none" font-family="sans-serif" dy="1.5625" font-size="25" fill="#FFFFFF"/><text text-anchor="middle" pointer-events="none" font-family="sans-serif" dy="1.5625" font-size="25" fill="#FFFFFF"/><text text-anchor="middle" pointer-events="none" y="0" font-size="10px" fill="#FFFFFF" font-family="sans-serif"> James</text><text text-anchor="middle" pointer-events="none" y="10" font-size="10px" fill="#FFFFFF" font-family="sans-serif"> Marshall</text></g><g class="node" transform="translate(29.48996174520567,47.66593716141577)"><circle class="outline" cx="0" cy="0" r="25" fill="#6DCE9E" stroke="#60B58B" stroke-width="2px"/><text text-anchor="middle" pointer-events="none" font-family="sans-serif" dy="1.5625" font-size="25" fill="#FFFFFF"/><text text-anchor="middle" pointer-events="none" font-family="sans-serif" dy="1.5625" font-size="25" fill="#FFFFFF"/><text text-anchor="middle" pointer-events="none" y="0" font-size="10px" fill="#FFFFFF" font-family="sans-serif"> Cloud</text><text text-anchor="middle" pointer-events="none" y="10" font-size="10px" fill="#FFFFFF" font-family="sans-serif"> Atlas</text></g><g class="node" transform="translate(84.19204810355414,136.9033234449247)"><circle class="outline" cx="0" cy="0" r="25" fill="#68BDF6" stroke="#5CA8DB" stroke-width="2px"/><text text-anchor="middle" pointer-events="none" font-family="sans-serif" dy="1.5625" font-size="25" fill="#FFFFFF"/><text text-anchor="middle" pointer-events="none" font-family="sans-serif" dy="1.5625" font-size="25" fill="#FFFFFF"/><text text-anchor="middle" pointer-events="none" y="0" font-size="10px" fill="#FFFFFF" font-family="sans-serif"> Lilly</text><text text-anchor="middle" pointer-events="none" y="10" font-size="10px" fill="#FFFFFF" font-family="sans-serif"> Wacho…</text></g><g class="node" transform="translate(108.46505970651027,82.09404136692717)"><circle class="outline" cx="0" cy="0" r="25" fill="#68BDF6" stroke="#5CA8DB" stroke-width="2px"/><text text-anchor="middle" pointer-events="none" font-family="sans-serif" dy="1.5625" font-size="25" fill="#FFFFFF"/><text text-anchor="middle" pointer-events="none" font-family="sans-serif" dy="1.5625" font-size="25" fill="#FFFFFF"/><text text-anchor="middle" pointer-events="none" y="0" font-size="10px" fill="#FFFFFF" font-family="sans-serif"> Lana</text><text text-anchor="middle" pointer-events="none" y="10" font-size="10px" fill="#FFFFFF" font-family="sans-serif"> Wacho…</text></g><g class="node" transform="translate(19.695715522682036,-63.56453819468994)"><circle class="outline" cx="0" cy="0" r="25" fill="#68BDF6" stroke="#5CA8DB" stroke-width="2px"/><text text-anchor="middle" pointer-events="none" font-family="sans-serif" dy="1.5625" font-size="25" fill="#FFFFFF"/><text text-anchor="middle" pointer-events="none" font-family="sans-serif" dy="1.5625" font-size="25" fill="#FFFFFF"/><text text-anchor="middle" pointer-events="none" y="0" font-size="10px" fill="#FFFFFF" font-family="sans-serif"> Tom</text><text text-anchor="middle" pointer-events="none" y="10" font-size="10px" fill="#FFFFFF" font-family="sans-serif"> Tykwer</text></g><g class="node" transform="translate(-91.96135446036983,101.85242924021011)"><circle class="outline" cx="0" cy="0" r="25" fill="#6DCE9E" stroke="#60B58B" stroke-width="2px"/><text text-anchor="middle" pointer-events="none" font-family="sans-serif" dy="1.5625" font-size="25" fill="#FFFFFF"/><text text-anchor="middle" pointer-events="none" font-family="sans-serif" dy="1.5625" font-size="25" fill="#FFFFFF"/><text text-anchor="middle" pointer-events="none" font-family="sans-serif" dy="1.5625" font-size="25" fill="#FFFFFF"/><text text-anchor="middle" pointer-events="none" y="-5" font-size="10px" fill="#FFFFFF" font-family="sans-serif"> The</text><text text-anchor="middle" pointer-events="none" y="5" font-size="10px" fill="#FFFFFF" font-family="sans-serif"> Matrix</text><text text-anchor="middle" pointer-events="none" y="15" font-size="10px" fill="#FFFFFF" font-family="sans-serif"> Revol…</text></g><g class="node" transform="translate(-9.977435439092432,186.34838352623962)"><circle class="outline" cx="0" cy="0" r="25" fill="#6DCE9E" stroke="#60B58B" stroke-width="2px"/><text text-anchor="middle" pointer-events="none" font-family="sans-serif" dy="1.5625" font-size="25" fill="#FFFFFF"/><text text-anchor="middle" pointer-events="none" font-family="sans-serif" dy="1.5625" font-size="25" fill="#FFFFFF"/><text text-anchor="middle" pointer-events="none" font-family="sans-serif" dy="1.5625" font-size="25" fill="#FFFFFF"/><text text-anchor="middle" pointer-events="none" y="-5" font-size="10px" fill="#FFFFFF" font-family="sans-serif"> The</text><text text-anchor="middle" pointer-events="none" y="5" font-size="10px" fill="#FFFFFF" font-family="sans-serif"> Matrix</text><text text-anchor="middle" pointer-events="none" y="15" font-size="10px" fill="#FFFFFF" font-family="sans-serif"> Reloa…</text></g><g class="node" transform="translate(162.0683102718275,190.55052422505923)"><circle class="outline" cx="0" cy="0" r="25" fill="#6DCE9E" stroke="#60B58B" stroke-width="2px"/><text text-anchor="middle" pointer-events="none" font-family="sans-serif" dy="1.5625" font-size="25" fill="#FFFFFF"/><text text-anchor="middle" pointer-events="none" font-family="sans-serif" dy="1.5625" font-size="25" fill="#FFFFFF"/><text text-anchor="middle" pointer-events="none" y="0" font-size="10px" fill="#FFFFFF" font-family="sans-serif"> The</text><text text-anchor="middle" pointer-events="none" y="10" font-size="10px" fill="#FFFFFF" font-family="sans-serif"> Matrix</text></g></g></svg>