<svg xmlns="http://www.w3.org/2000/svg" width="253.72134399414062" height="253.6483154296875" viewBox="-32.23163604736328 -21.752586364746094 253.72134399414062 253.6483154296875"><title>Neo4j Graph Visualization</title><desc>Created using Neo4j (http://www.neo4j.com/)</desc><g class="layer relationships"><g class="relationship" transform="translate(7.212050316145233 192.79362640944572) rotate(314.9218867852943)"><path class="outline" fill="#A5ABB6" stroke="none" d="M 25 0.5 L 31.541302965615323 0.5 L 31.541302965615323 -0.5 L 25 -0.5 Z M 71.03642015311533 0.5 L 77.57772311873065 0.5 L 77.57772311873065 3.5 L 84.57772311873065 0 L 77.57772311873065 -3.5 L 77.57772311873065 -0.5 L 71.03642015311533 -0.5 Z"/><text text-anchor="middle" pointer-events="none" font-size="8px" fill="#000000" x="51.28886155936532" y="3" font-family="sans-serif">WROTE</text></g><g class="relationship" transform="translate(-3.2316365559453955 45.77437307909081) rotate(398.3295564552442)"><path class="outline" fill="#A5ABB6" stroke="none" d="M 25 0.5 L 32.72821905099942 0.5 L 32.72821905099942 -0.5 L 25 -0.5 Z M 72.22333623849943 0.5 L 79.95155528949884 0.5 L 79.95155528949884 3.5 L 86.95155528949884 0 L 79.95155528949884 -3.5 L 79.95155528949884 -0.5 L 72.22333623849943 -0.5 Z"/><text text-anchor="middle" pointer-events="none" font-size="8px" fill="#000000" x="52.47577764474942" y="3" font-family="sans-serif">WROTE</text></g><g class="relationship" transform="translate(192.4897006475802 85.95390418573378) rotate(524.8320632820523)"><path class="outline" fill="#A5ABB6" stroke="none" d="M 25 0.5 L 27.143490900476657 0.5 L 27.143490900476657 -0.5 L 25 -0.5 Z M 77.65130340047665 0.5 L 79.79479430095331 0.5 L 79.79479430095331 3.5 L 86.79479430095331 0 L 79.79479430095331 -3.5 L 79.79479430095331 -0.5 L 77.65130340047665 -0.5 Z"/><text text-anchor="middle" pointer-events="none" font-size="8px" fill="#000000" x="52.39739715047666" y="3" transform="rotate(180 52.39739715047666 0)" font-family="sans-serif">ACTED_IN</text></g><g class="relationship" transform="translate(113.80803013471522 7.247414331530859) rotate(465.1442017301297)"><path class="outline" fill="#A5ABB6" stroke="none" d="M 25 0.5 L 26.419824934891167 0.5 L 26.419824934891167 -0.5 L 25 -0.5 Z M 78.42177805989117 0.5 L 79.84160299478233 0.5 L 79.84160299478233 3.5 L 86.84160299478233 0 L 79.84160299478233 -3.5 L 79.84160299478233 -0.5 L 78.42177805989117 -0.5 Z"/><text text-anchor="middle" pointer-events="none" font-size="8px" fill="#000000" x="52.42080149739117" y="3" transform="rotate(180 52.42080149739117 0)" font-family="sans-serif">DIRECTED</text></g><g class="relationship" transform="translate(154.14933024664157 202.89572446388502) rotate(231.57715175133717)"><path class="outline" fill="#A5ABB6" stroke="none" d="M 25 0.5 L 27.21092508770031 0.5 L 27.21092508770031 -0.5 L 25 -0.5 Z M 77.7187375877003 0.5 L 79.92966267540062 0.5 L 79.92966267540062 3.5 L 86.92966267540062 0 L 79.92966267540062 -3.5 L 79.92966267540062 -0.5 L 77.7187375877003 -0.5 Z"/><text text-anchor="middle" pointer-events="none" font-size="8px" fill="#000000" x="52.46483133770031" y="3" transform="rotate(180 52.46483133770031 0)" font-family="sans-serif">ACTED_IN</text></g></g><g class="layer nodes"><g class="node" transform="translate(154.14933024664157,202.89572446388502)"><circle class="outline" cx="0" cy="0" r="25" fill="#68BDF6" stroke="#5CA8DB" stroke-width="2px"/><text text-anchor="middle" pointer-events="none" font-family="sans-serif" dy="1.5625" font-size="25" fill="#FFFFFF"/><text text-anchor="middle" pointer-events="none" font-family="sans-serif" dy="1.5625" font-size="25" fill="#FFFFFF"/><text text-anchor="middle" pointer-events="none" font-family="sans-serif" dy="1.5625" font-size="25" fill="#FFFFFF"/><text text-anchor="middle" pointer-events="none" y="-5" font-size="10px" fill="#FFFFFF" font-family="sans-serif"> Samuel</text><text text-anchor="middle" pointer-events="none" y="5" font-size="10px" fill="#FFFFFF" font-family="sans-serif"> L.</text><text text-anchor="middle" pointer-events="none" y="15" font-size="10px" fill="#FFFFFF" font-family="sans-serif"> Jackson</text></g><g class="node" transform="translate(84.58949410483828,115.20491204573915)"><circle class="outline" cx="0" cy="0" r="25" fill="#6DCE9E" stroke="#60B58B" stroke-width="2px"/><text text-anchor="middle" pointer-events="none" font-family="sans-serif" dy="1.5625" font-size="25" fill="#FFFFFF"/><text text-anchor="middle" pointer-events="none" font-family="sans-serif" dy="1.5625" font-size="25" fill="#FFFFFF"/><text text-anchor="middle" pointer-events="none" font-family="sans-serif" dy="1.5625" font-size="25" fill="#FFFFFF"/><text text-anchor="middle" pointer-events="none" y="-5" font-size="10px" fill="#FFFFFF" font-family="sans-serif"> Captain</text><text text-anchor="middle" pointer-events="none" y="5" font-size="10px" fill="#FFFFFF" font-family="sans-serif"> America:</text><text text-anchor="middle" pointer-events="none" y="15" font-size="10px" fill="#FFFFFF" font-family="sans-serif"> The Fi…</text></g><g class="node" transform="translate(192.4897006475802,85.95390418573378)"><circle class="outline" cx="0" cy="0" r="25" fill="#68BDF6" stroke="#5CA8DB" stroke-width="2px"/><text text-anchor="middle" pointer-events="none" font-family="sans-serif" dy="1.5625" font-size="25" fill="#FFFFFF"/><text text-anchor="middle" pointer-events="none" font-family="sans-serif" dy="1.5625" font-size="25" fill="#FFFFFF"/><text text-anchor="middle" pointer-events="none" y="0" font-size="10px" fill="#FFFFFF" font-family="sans-serif"> Chris</text><text text-anchor="middle" pointer-events="none" y="10" font-size="10px" fill="#FFFFFF" font-family="sans-serif"> Evans</text></g><g class="node" transform="translate(113.80803013471522,7.247414331530859)"><circle class="outline" cx="0" cy="0" r="25" fill="#68BDF6" stroke="#5CA8DB" stroke-width="2px"/><text text-anchor="middle" pointer-events="none" font-family="sans-serif" dy="1.5625" font-size="25" fill="#FFFFFF"/><text text-anchor="middle" pointer-events="none" font-family="sans-serif" dy="1.5625" font-size="25" fill="#FFFFFF"/><text text-anchor="middle" pointer-events="none" y="0" font-size="10px" fill="#FFFFFF" font-family="sans-serif"> Joe</text><text text-anchor="middle" pointer-events="none" y="10" font-size="10px" fill="#FFFFFF" font-family="sans-serif"> Johnston</text></g><g class="node" transform="translate(-3.2316365559453955,45.77437307909081)"><circle class="outline" cx="0" cy="0" r="25" fill="#68BDF6" stroke="#5CA8DB" stroke-width="2px"/><text text-anchor="middle" pointer-events="none" font-family="sans-serif" dy="1.5625" font-size="25" fill="#FFFFFF"/><text text-anchor="middle" pointer-events="none" font-family="sans-serif" dy="1.5625" font-size="25" fill="#FFFFFF"/><text text-anchor="middle" pointer-events="none" y="0" font-size="10px" fill="#FFFFFF" font-family="sans-serif"> Stephen</text><text text-anchor="middle" pointer-events="none" y="10" font-size="10px" fill="#FFFFFF" font-family="sans-serif"> McFeely</text></g><g class="node" transform="translate(7.212050316145233,192.79362640944572)"><circle class="outline" cx="0" cy="0" r="25" fill="#68BDF6" stroke="#5CA8DB" stroke-width="2px"/><text text-anchor="middle" pointer-events="none" font-family="sans-serif" dy="1.5625" font-size="25" fill="#FFFFFF"/><text text-anchor="middle" pointer-events="none" y="5" font-size="10px" fill="#FFFFFF" font-family="sans-serif"> Christop…</text></g></g></svg>