<svg xmlns="http://www.w3.org/2000/svg" width="732.7794189453125" height="365.0308837890625" viewBox="-313.28076171875 -85.72627258300781 732.7794189453125 365.0308837890625"><title>Neo4j Graph Visualization</title><desc>Created using Neo4j (http://www.neo4j.com/)</desc><g class="layer relationships"><g class="relationship" transform="translate(161.98466012210235 36.780364442025785) rotate(462.83048418543285)"><path class="outline" fill="#A5ABB6" stroke="none" d="M 25 0.5 L 26.551051091334465 0.5 L 26.551051091334465 -0.5 L 25 -0.5 Z M 59.551051091334465 0.5 L 61.10210218266893 0.5 L 61.10210218266893 3.5 L 68.10210218266893 0 L 61.10210218266893 -3.5 L 61.10210218266893 -0.5 L 59.551051091334465 -0.5 Z"/><text text-anchor="middle" pointer-events="none" font-size="8px" fill="#000000" x="43.051051091334465" y="3" transform="rotate(180 43.051051091334465 0)" font-family="sans-serif">ACT…</text></g><g class="relationship" transform="translate(115.91055571280337 250.30459246613873) rotate(281.69084230801286)"><path class="outline" fill="#A5ABB6" stroke="none" d="M 25 0.5 L 33.91962317340541 0.5 L 33.91962317340541 -0.5 L 25 -0.5 Z M 84.42743567340541 0.5 L 93.34705884681082 0.5 L 93.34705884681082 3.5 L 100.34705884681082 0 L 93.34705884681082 -3.5 L 93.34705884681082 -0.5 L 84.42743567340541 -0.5 Z"/><text text-anchor="middle" pointer-events="none" font-size="8px" fill="#000000" x="59.17352942340541" y="3" font-family="sans-serif">ACTED_IN</text></g><g class="relationship" transform="translate(54.16648864012383 199.63978209546624) rotate(320.4035942290573)"><path class="outline" fill="#A5ABB6" stroke="none" d="M 25 0.5 L 27.791986023613326 0.5 L 27.791986023613326 -0.5 L 25 -0.5 Z M 78.29979852361333 0.5 L 81.09178454722665 0.5 L 81.09178454722665 3.5 L 88.09178454722665 0 L 81.09178454722665 -3.5 L 81.09178454722665 -0.5 L 78.29979852361333 -0.5 Z"/><text text-anchor="middle" pointer-events="none" font-size="8px" fill="#000000" x="53.045892273613326" y="3" font-family="sans-serif">ACTED_IN</text></g><g class="relationship" transform="translate(243.7155095705559 184.10728022489536) rotate(208.9078981666134)"><path class="outline" fill="#A5ABB6" stroke="none" d="M 25 0.5 L 29.737084811310467 0.5 L 29.737084811310467 -0.5 L 25 -0.5 Z M 80.24489731131047 0.5 L 84.98198212262093 0.5 L 84.98198212262093 3.5 L 91.98198212262093 0 L 84.98198212262093 -3.5 L 84.98198212262093 -0.5 L 80.24489731131047 -0.5 Z"/><text text-anchor="middle" pointer-events="none" font-size="8px" fill="#000000" x="54.99099106131047" y="3" transform="rotate(180 54.99099106131047 0)" font-family="sans-serif">ACTED_IN</text></g><g class="relationship" transform="translate(188.0447829718101 247.31931219027823) rotate(248.68255798449587)"><path class="outline" fill="#A5ABB6" stroke="none" d="M 25 0.5 L 35.52474003005817 0.5 L 35.52474003005817 -0.5 L 25 -0.5 Z M 86.03255253005817 0.5 L 96.55729256011634 0.5 L 96.55729256011634 3.5 L 103.55729256011634 0 L 96.55729256011634 -3.5 L 96.55729256011634 -0.5 L 86.03255253005817 -0.5 Z"/><text text-anchor="middle" pointer-events="none" font-size="8px" fill="#000000" x="60.77864628005817" y="3" transform="rotate(180 60.77864628005817 0)" font-family="sans-serif">ACTED_IN</text></g><g class="relationship" transform="translate(390.4986339713373 128.6538828524148) rotate(214.92969768912246)"><path class="outline" fill="#A5ABB6" stroke="none" d="M 25 0.5 L 28.4288190126002 0.5 L 28.4288190126002 -0.5 L 25 -0.5 Z M 78.9366315126002 0.5 L 82.3654505252004 0.5 L 82.3654505252004 3.5 L 89.3654505252004 0 L 82.3654505252004 -3.5 L 82.3654505252004 -0.5 L 78.9366315126002 -0.5 Z"/><text text-anchor="middle" pointer-events="none" font-size="8px" fill="#000000" x="53.6827252626002" y="3" transform="rotate(180 53.6827252626002 0)" font-family="sans-serif">ACTED_IN</text></g><g class="relationship" transform="translate(161.98466012210235 36.780364442025785) rotate(371.0812142540275)"><path class="outline" fill="#A5ABB6" stroke="none" d="M 25 0.5 L 39.9015561673704 0.5 L 39.9015561673704 -0.5 L 25 -0.5 Z M 90.4093686673704 0.5 L 105.3109248347408 0.5 L 105.3109248347408 3.5 L 112.3109248347408 0 L 105.3109248347408 -3.5 L 105.3109248347408 -0.5 L 90.4093686673704 -0.5 Z"/><text text-anchor="middle" pointer-events="none" font-size="8px" fill="#000000" x="65.1554624173704" y="3" font-family="sans-serif">ACTED_IN</text></g><g class="relationship" transform="translate(275.7629186462749 -56.12459421920052) rotate(440.02912659430024)"><path class="outline" fill="#A5ABB6" stroke="none" d="M 25 0.5 L 31.808914697731232 0.5 L 31.808914697731232 -0.5 L 25 -0.5 Z M 82.31672719773124 0.5 L 89.12564189546246 0.5 L 89.12564189546246 3.5 L 96.12564189546246 0 L 89.12564189546246 -3.5 L 89.12564189546246 -0.5 L 82.31672719773124 -0.5 Z"/><text text-anchor="middle" pointer-events="none" font-size="8px" fill="#000000" x="57.06282094773123" y="3" font-family="sans-serif">ACTED_IN</text></g><g class="relationship" transform="translate(380.1658703389556 -13.010882636873783) rotate(497.5999771157433)"><path class="outline" fill="#A5ABB6" stroke="none" d="M 25 0.5 L 27.73588576850876 0.5 L 27.73588576850876 -0.5 L 25 -0.5 Z M 78.24369826850875 0.5 L 80.97958403701752 0.5 L 80.97958403701752 3.5 L 87.97958403701752 0 L 80.97958403701752 -3.5 L 80.97958403701752 -0.5 L 78.24369826850875 -0.5 Z"/><text text-anchor="middle" pointer-events="none" font-size="8px" fill="#000000" x="52.98979201850876" y="3" transform="rotate(180 52.98979201850876 0)" font-family="sans-serif">ACTED_IN</text></g><g class="relationship" transform="translate(161.98466012210235 36.780364442025785) rotate(536.5140808210107)"><path class="outline" fill="#A5ABB6" stroke="none" d="M 25 0.5 L 115.84973979350283 0.5 L 115.84973979350283 -0.5 L 25 -0.5 Z M 166.35755229350283 0.5 L 257.20729208700567 0.5 L 257.20729208700567 3.5 L 264.20729208700567 0 L 257.20729208700567 -3.5 L 257.20729208700567 -0.5 L 166.35755229350283 -0.5 Z"/><text text-anchor="middle" pointer-events="none" font-size="8px" fill="#000000" x="141.10364604350283" y="3" transform="rotate(180 141.10364604350283 0)" font-family="sans-serif">ACTED_IN</text></g><g class="relationship" transform="translate(-253.36658291919787 149.00720436780946) rotate(323.2365388824931)"><path class="outline" fill="#A5ABB6" stroke="none" d="M 25 0.5 L 50.31048031298542 0.5 L 50.31048031298542 -0.5 L 25 -0.5 Z M 100.81829281298542 0.5 L 126.12877312597084 0.5 L 126.12877312597084 3.5 L 133.12877312597084 0 L 126.12877312597084 -3.5 L 126.12877312597084 -0.5 L 100.81829281298542 -0.5 Z"/><text text-anchor="middle" pointer-events="none" font-size="8px" fill="#000000" x="75.56438656298542" y="3" font-family="sans-serif">ACTED_IN</text></g><g class="relationship" transform="translate(-275.0764347662605 15.58499969981392) rotate(374.64616152260334)"><path class="outline" fill="#A5ABB6" stroke="none" d="M 25 0.5 L 47.93240755520901 0.5 L 47.93240755520901 -0.5 L 25 -0.5 Z M 98.44022005520901 0.5 L 121.37262761041802 0.5 L 121.37262761041802 3.5 L 128.37262761041802 0 L 121.37262761041802 -3.5 L 121.37262761041802 -0.5 L 98.44022005520901 -0.5 Z"/><text text-anchor="middle" pointer-events="none" font-size="8px" fill="#000000" x="73.18631380520901" y="3" font-family="sans-serif">ACTED_IN</text></g><g class="relationship" transform="translate(-284.28076462978925 -56.72627123009528) rotate(395.18095793133057)"><path class="outline" fill="#A5ABB6" stroke="none" d="M 25 0.5 L 67.65268151259542 0.5 L 67.65268151259542 -0.5 L 25 -0.5 Z M 118.16049401259542 0.5 L 160.81317552519084 0.5 L 160.81317552519084 3.5 L 167.81317552519084 0 L 160.81317552519084 -3.5 L 160.81317552519084 -0.5 L 118.16049401259542 -0.5 Z"/><text text-anchor="middle" pointer-events="none" font-size="8px" fill="#000000" x="92.90658776259542" y="3" font-family="sans-serif">ACTED_IN</text></g><g class="relationship" transform="translate(161.98466012210235 36.780364442025785) rotate(188.47343975002667)"><path class="outline" fill="#A5ABB6" stroke="none" d="M 25 0.5 L 111.48040976261802 0.5 L 111.48040976261802 -0.5 L 25 -0.5 Z M 161.98822226261802 0.5 L 248.46863202523605 0.5 L 248.46863202523605 3.5 L 255.46863202523605 0 L 248.46863202523605 -3.5 L 248.46863202523605 -0.5 L 161.98822226261802 -0.5 Z"/><text text-anchor="middle" pointer-events="none" font-size="8px" fill="#000000" x="136.73431601261802" y="3" transform="rotate(180 136.73431601261802 0)" font-family="sans-serif">ACTED_IN</text></g><g class="relationship" transform="translate(-275.0764347662605 15.58499969981392) rotate(352.81308465743814)"><path class="outline" fill="#A5ABB6" stroke="none" d="M 25 0.5 L 51.70522769571886 0.5 L 51.70522769571886 -0.5 L 25 -0.5 Z M 102.21304019571886 0.5 L 128.91826789143772 0.5 L 128.91826789143772 3.5 L 135.91826789143772 0 L 128.91826789143772 -3.5 L 128.91826789143772 -0.5 L 102.21304019571886 -0.5 Z"/><text text-anchor="middle" pointer-events="none" font-size="8px" fill="#000000" x="76.95913394571886" y="3" font-family="sans-serif">ACTED_IN</text></g><g class="relationship" transform="translate(-253.36658291919787 149.00720436780946) rotate(311.934681969031)"><path class="outline" fill="#A5ABB6" stroke="none" d="M 25 0.5 L 74.45396687880056 0.5 L 74.45396687880056 -0.5 L 25 -0.5 Z M 124.96177937880056 0.5 L 174.4157462576011 0.5 L 174.4157462576011 3.5 L 181.4157462576011 0 L 174.4157462576011 -3.5 L 174.4157462576011 -0.5 L 124.96177937880056 -0.5 Z"/><text text-anchor="middle" pointer-events="none" font-size="8px" fill="#000000" x="99.70787312880056" y="3" font-family="sans-serif">ACTED_IN</text></g><g class="relationship" transform="translate(-284.28076462978925 -56.72627123009528) rotate(377.1718012405878)"><path class="outline" fill="#A5ABB6" stroke="none" d="M 25 0.5 L 59.614372807742555 0.5 L 59.614372807742555 -0.5 L 25 -0.5 Z M 110.12218530774255 0.5 L 144.7365581154851 0.5 L 144.7365581154851 3.5 L 151.7365581154851 0 L 144.7365581154851 -3.5 L 144.7365581154851 -0.5 L 110.12218530774255 -0.5 Z"/><text text-anchor="middle" pointer-events="none" font-size="8px" fill="#000000" x="84.86827905774255" y="3" font-family="sans-serif">ACTED_IN</text></g><g class="relationship" transform="translate(-67.66705702956948 144.73392040885219) rotate(268.6613087662721)"><path class="outline" fill="#A5ABB6" stroke="none" d="M 25 0.5 L 26.32086046134428 0.5 L 26.32086046134428 -0.5 L 25 -0.5 Z M 76.82867296134428 0.5 L 78.14953342268856 0.5 L 78.14953342268856 3.5 L 85.14953342268856 0 L 78.14953342268856 -3.5 L 78.14953342268856 -0.5 L 76.82867296134428 -0.5 Z"/><text text-anchor="middle" pointer-events="none" font-size="8px" fill="#000000" x="51.57476671134428" y="3" transform="rotate(180 51.57476671134428 0)" font-family="sans-serif">ACTED_IN</text></g><g class="relationship" transform="translate(161.98466012210235 36.780364442025785) rotate(180.53436990997125)"><path class="outline" fill="#A5ABB6" stroke="none" d="M 25 0.5 L 87.36368361855908 0.5 L 87.36368361855908 -0.5 L 25 -0.5 Z M 137.8714961185591 0.5 L 200.23517973711816 0.5 L 200.23517973711816 3.5 L 207.23517973711816 0 L 200.23517973711816 -3.5 L 200.23517973711816 -0.5 L 137.8714961185591 -0.5 Z"/><text text-anchor="middle" pointer-events="none" font-size="8px" fill="#000000" x="112.61758986855908" y="3" transform="rotate(180 112.61758986855908 0)" font-family="sans-serif">ACTED_IN</text></g><g class="relationship" transform="translate(-275.0764347662605 15.58499969981392) rotate(365.30759560135)"><path class="outline" fill="#A5ABB6" stroke="none" d="M 25 0.5 L 74.10511527975143 0.5 L 74.10511527975143 -0.5 L 25 -0.5 Z M 124.61292777975143 0.5 L 173.71804305950286 0.5 L 173.71804305950286 3.5 L 180.71804305950286 0 L 173.71804305950286 -3.5 L 173.71804305950286 -0.5 L 124.61292777975143 -0.5 Z"/><text text-anchor="middle" pointer-events="none" font-size="8px" fill="#000000" x="99.35902152975143" y="3" font-family="sans-serif">ACTED_IN</text></g><g class="relationship" transform="translate(-253.36658291919787 149.00720436780946) rotate(328.00836548077694)"><path class="outline" fill="#A5ABB6" stroke="none" d="M 25 0.5 L 79.2054539157065 0.5 L 79.2054539157065 -0.5 L 25 -0.5 Z M 129.7132664157065 0.5 L 183.918720331413 0.5 L 183.918720331413 3.5 L 190.918720331413 0 L 183.918720331413 -3.5 L 183.918720331413 -0.5 L 129.7132664157065 -0.5 Z"/><text text-anchor="middle" pointer-events="none" font-size="8px" fill="#000000" x="104.4593601657065" y="3" font-family="sans-serif">ACTED_IN</text></g><g class="relationship" transform="translate(-284.28076462978925 -56.72627123009528) rotate(383.1101407303104)"><path class="outline" fill="#A5ABB6" stroke="none" d="M 25 0.5 L 87.60372883727963 0.5 L 87.60372883727963 -0.5 L 25 -0.5 Z M 138.11154133727962 0.5 L 200.71527017455927 0.5 L 200.71527017455927 3.5 L 207.71527017455927 0 L 200.71527017455927 -3.5 L 200.71527017455927 -0.5 L 138.11154133727962 -0.5 Z"/><text text-anchor="middle" pointer-events="none" font-size="8px" fill="#000000" x="112.85763508727963" y="3" font-family="sans-serif">ACTED_IN</text></g></g><g class="layer nodes"><g class="node" transform="translate(161.98466012210235,36.780364442025785)"><circle class="outline" cx="0" cy="0" r="25" fill="#68BDF6" stroke="#5CA8DB" stroke-width="2px"/><text text-anchor="middle" pointer-events="none" font-family="sans-serif" dy="1.5625" font-size="25" fill="#FFFFFF"/><text text-anchor="middle" pointer-events="none" font-family="sans-serif" dy="1.5625" font-size="25" fill="#FFFFFF"/><text text-anchor="middle" pointer-events="none" y="0" font-size="10px" fill="#FFFFFF" font-family="sans-serif"> Hugo</text><text text-anchor="middle" pointer-events="none" y="10" font-size="10px" fill="#FFFFFF" font-family="sans-serif"> Weaving</text></g><g class="node" transform="translate(141.30972823662893,127.55783203373139)"><circle class="outline" cx="0" cy="0" r="25" fill="#6DCE9E" stroke="#60B58B" stroke-width="2px"/><text text-anchor="middle" pointer-events="none" font-family="sans-serif" dy="1.5625" font-size="25" fill="#FFFFFF"/><text text-anchor="middle" pointer-events="none" font-family="sans-serif" dy="1.5625" font-size="25" fill="#FFFFFF"/><text text-anchor="middle" pointer-events="none" y="0" font-size="10px" fill="#FFFFFF" font-family="sans-serif"> V for</text><text text-anchor="middle" pointer-events="none" y="10" font-size="10px" fill="#FFFFFF" font-family="sans-serif"> Vendetta</text></g><g class="node" transform="translate(115.91055571280337,250.30459246613873)"><circle class="outline" cx="0" cy="0" r="25" fill="#68BDF6" stroke="#5CA8DB" stroke-width="2px"/><text text-anchor="middle" pointer-events="none" font-family="sans-serif" dy="1.5625" font-size="25" fill="#FFFFFF"/><text text-anchor="middle" pointer-events="none" y="5" font-size="10px" fill="#FFFFFF" font-family="sans-serif"> Ben Miles</text></g><g class="node" transform="translate(54.16648864012383,199.63978209546624)"><circle class="outline" cx="0" cy="0" r="25" fill="#68BDF6" stroke="#5CA8DB" stroke-width="2px"/><text text-anchor="middle" pointer-events="none" font-family="sans-serif" dy="1.5625" font-size="25" fill="#FFFFFF"/><text text-anchor="middle" pointer-events="none" y="5" font-size="10px" fill="#FFFFFF" font-family="sans-serif"> John Hurt</text></g><g class="node" transform="translate(243.7155095705559,184.10728022489536)"><circle class="outline" cx="0" cy="0" r="25" fill="#68BDF6" stroke="#5CA8DB" stroke-width="2px"/><text text-anchor="middle" pointer-events="none" font-family="sans-serif" dy="1.5625" font-size="25" fill="#FFFFFF"/><text text-anchor="middle" pointer-events="none" font-family="sans-serif" dy="1.5625" font-size="25" fill="#FFFFFF"/><text text-anchor="middle" pointer-events="none" y="0" font-size="10px" fill="#FFFFFF" font-family="sans-serif"> Stephen</text><text text-anchor="middle" pointer-events="none" y="10" font-size="10px" fill="#FFFFFF" font-family="sans-serif"> Rea</text></g><g class="node" transform="translate(188.0447829718101,247.31931219027823)"><circle class="outline" cx="0" cy="0" r="25" fill="#68BDF6" stroke="#5CA8DB" stroke-width="2px"/><text text-anchor="middle" pointer-events="none" font-family="sans-serif" dy="1.5625" font-size="25" fill="#FFFFFF"/><text text-anchor="middle" pointer-events="none" font-family="sans-serif" dy="1.5625" font-size="25" fill="#FFFFFF"/><text text-anchor="middle" pointer-events="none" y="0" font-size="10px" fill="#FFFFFF" font-family="sans-serif"> Natalie</text><text text-anchor="middle" pointer-events="none" y="10" font-size="10px" fill="#FFFFFF" font-family="sans-serif"> Portman</text></g><g class="node" transform="translate(296.7355235528163,63.17155395005903)"><circle class="outline" cx="0" cy="0" r="25" fill="#6DCE9E" stroke="#60B58B" stroke-width="2px"/><text text-anchor="middle" pointer-events="none" font-family="sans-serif" dy="1.5625" font-size="25" fill="#FFFFFF"/><text text-anchor="middle" pointer-events="none" font-family="sans-serif" dy="1.5625" font-size="25" fill="#FFFFFF"/><text text-anchor="middle" pointer-events="none" y="0" font-size="10px" fill="#FFFFFF" font-family="sans-serif"> Cloud</text><text text-anchor="middle" pointer-events="none" y="10" font-size="10px" fill="#FFFFFF" font-family="sans-serif"> Atlas</text></g><g class="node" transform="translate(390.4986339713373,128.6538828524148)"><circle class="outline" cx="0" cy="0" r="25" fill="#68BDF6" stroke="#5CA8DB" stroke-width="2px"/><text text-anchor="middle" pointer-events="none" font-family="sans-serif" dy="1.5625" font-size="25" fill="#FFFFFF"/><text text-anchor="middle" pointer-events="none" font-family="sans-serif" dy="1.5625" font-size="25" fill="#FFFFFF"/><text text-anchor="middle" pointer-events="none" y="0" font-size="10px" fill="#FFFFFF" font-family="sans-serif"> Jim</text><text text-anchor="middle" pointer-events="none" y="10" font-size="10px" fill="#FFFFFF" font-family="sans-serif"> Broadb…</text></g><g class="node" transform="translate(275.7629186462749,-56.12459421920052)"><circle class="outline" cx="0" cy="0" r="25" fill="#68BDF6" stroke="#5CA8DB" stroke-width="2px"/><text text-anchor="middle" pointer-events="none" font-family="sans-serif" dy="1.5625" font-size="25" fill="#FFFFFF"/><text text-anchor="middle" pointer-events="none" font-family="sans-serif" dy="1.5625" font-size="25" fill="#FFFFFF"/><text text-anchor="middle" pointer-events="none" y="0" font-size="10px" fill="#FFFFFF" font-family="sans-serif"> Halle</text><text text-anchor="middle" pointer-events="none" y="10" font-size="10px" fill="#FFFFFF" font-family="sans-serif"> Berry</text></g><g class="node" transform="translate(380.1658703389556,-13.010882636873783)"><circle class="outline" cx="0" cy="0" r="25" fill="#68BDF6" stroke="#5CA8DB" stroke-width="2px"/><text text-anchor="middle" pointer-events="none" font-family="sans-serif" dy="1.5625" font-size="25" fill="#FFFFFF"/><text text-anchor="middle" pointer-events="none" font-family="sans-serif" dy="1.5625" font-size="25" fill="#FFFFFF"/><text text-anchor="middle" pointer-events="none" y="0" font-size="10px" fill="#FFFFFF" font-family="sans-serif"> Tom</text><text text-anchor="middle" pointer-events="none" y="10" font-size="10px" fill="#FFFFFF" font-family="sans-serif"> Hanks</text></g><g class="node" transform="translate(-126.6875323521397,54.365104656563226)"><circle class="outline" cx="0" cy="0" r="25" fill="#6DCE9E" stroke="#60B58B" stroke-width="2px"/><text text-anchor="middle" pointer-events="none" font-family="sans-serif" dy="1.5625" font-size="25" fill="#FFFFFF"/><text text-anchor="middle" pointer-events="none" font-family="sans-serif" dy="1.5625" font-size="25" fill="#FFFFFF"/><text text-anchor="middle" pointer-events="none" font-family="sans-serif" dy="1.5625" font-size="25" fill="#FFFFFF"/><text text-anchor="middle" pointer-events="none" y="-5" font-size="10px" fill="#FFFFFF" font-family="sans-serif"> The</text><text text-anchor="middle" pointer-events="none" y="5" font-size="10px" fill="#FFFFFF" font-family="sans-serif"> Matrix</text><text text-anchor="middle" pointer-events="none" y="15" font-size="10px" fill="#FFFFFF" font-family="sans-serif"> Revol…</text></g><g class="node" transform="translate(-253.36658291919787,149.00720436780946)"><circle class="outline" cx="0" cy="0" r="25" fill="#68BDF6" stroke="#5CA8DB" stroke-width="2px"/><text text-anchor="middle" pointer-events="none" font-family="sans-serif" dy="1.5625" font-size="25" fill="#FFFFFF"/><text text-anchor="middle" pointer-events="none" y="5" font-size="10px" fill="#FFFFFF" font-family="sans-serif"> Carrie-A…</text></g><g class="node" transform="translate(-275.0764347662605,15.58499969981392)"><circle class="outline" cx="0" cy="0" r="25" fill="#68BDF6" stroke="#5CA8DB" stroke-width="2px"/><text text-anchor="middle" pointer-events="none" font-family="sans-serif" dy="1.5625" font-size="25" fill="#FFFFFF"/><text text-anchor="middle" pointer-events="none" font-family="sans-serif" dy="1.5625" font-size="25" fill="#FFFFFF"/><text text-anchor="middle" pointer-events="none" y="0" font-size="10px" fill="#FFFFFF" font-family="sans-serif"> Laurence</text><text text-anchor="middle" pointer-events="none" y="10" font-size="10px" fill="#FFFFFF" font-family="sans-serif"> Fishbur…</text></g><g class="node" transform="translate(-284.28076462978925,-56.72627123009528)"><circle class="outline" cx="0" cy="0" r="25" fill="#68BDF6" stroke="#5CA8DB" stroke-width="2px"/><text text-anchor="middle" pointer-events="none" font-family="sans-serif" dy="1.5625" font-size="25" fill="#FFFFFF"/><text text-anchor="middle" pointer-events="none" font-family="sans-serif" dy="1.5625" font-size="25" fill="#FFFFFF"/><text text-anchor="middle" pointer-events="none" y="0" font-size="10px" fill="#FFFFFF" font-family="sans-serif"> Keanu</text><text text-anchor="middle" pointer-events="none" y="10" font-size="10px" fill="#FFFFFF" font-family="sans-serif"> Reeves</text></g><g class="node" transform="translate(-115.4224537780334,-4.546947443752117)"><circle class="outline" cx="0" cy="0" r="25" fill="#6DCE9E" stroke="#60B58B" stroke-width="2px"/><text text-anchor="middle" pointer-events="none" font-family="sans-serif" dy="1.5625" font-size="25" fill="#FFFFFF"/><text text-anchor="middle" pointer-events="none" font-family="sans-serif" dy="1.5625" font-size="25" fill="#FFFFFF"/><text text-anchor="middle" pointer-events="none" font-family="sans-serif" dy="1.5625" font-size="25" fill="#FFFFFF"/><text text-anchor="middle" pointer-events="none" y="-5" font-size="10px" fill="#FFFFFF" font-family="sans-serif"> The</text><text text-anchor="middle" pointer-events="none" y="5" font-size="10px" fill="#FFFFFF" font-family="sans-serif"> Matrix</text><text text-anchor="middle" pointer-events="none" y="15" font-size="10px" fill="#FFFFFF" font-family="sans-serif"> Reloa…</text></g><g class="node" transform="translate(-70.24041933089137,34.61445110527209)"><circle class="outline" cx="0" cy="0" r="25" fill="#6DCE9E" stroke="#60B58B" stroke-width="2px"/><text text-anchor="middle" pointer-events="none" font-family="sans-serif" dy="1.5625" font-size="25" fill="#FFFFFF"/><text text-anchor="middle" pointer-events="none" font-family="sans-serif" dy="1.5625" font-size="25" fill="#FFFFFF"/><text text-anchor="middle" pointer-events="none" y="0" font-size="10px" fill="#FFFFFF" font-family="sans-serif"> The</text><text text-anchor="middle" pointer-events="none" y="10" font-size="10px" fill="#FFFFFF" font-family="sans-serif"> Matrix</text></g><g class="node" transform="translate(-67.66705702956948,144.73392040885219)"><circle class="outline" cx="0" cy="0" r="25" fill="#68BDF6" stroke="#5CA8DB" stroke-width="2px"/><text text-anchor="middle" pointer-events="none" font-family="sans-serif" dy="1.5625" font-size="25" fill="#FFFFFF"/><text text-anchor="middle" pointer-events="none" font-family="sans-serif" dy="1.5625" font-size="25" fill="#FFFFFF"/><text text-anchor="middle" pointer-events="none" y="0" font-size="10px" fill="#FFFFFF" font-family="sans-serif"> Emil</text><text text-anchor="middle" pointer-events="none" y="10" font-size="10px" fill="#FFFFFF" font-family="sans-serif"> Eifrem</text></g></g></svg>